<svg width="158" height="122" viewBox="0 0 158 122" fill="none" xmlns="http://www.w3.org/2000/svg">
<rect x="1" width="157" height="122" fill="#D9D9D9"/>
<g filter="url(#filter0_d_83_8)">
<path d="M55 23.1429C55 19.2031 57.8027 16 61.25 16H98.75C102.197 16 105 19.2031 105 23.1429V58.8571C105 62.7969 102.197 66 98.75 66H61.25C57.8027 66 55 62.7969 55 58.8571V23.1429ZM86.6211 35.029C86.1816 34.2924 85.459 33.8571 84.6875 33.8571C83.916 33.8571 83.1836 34.2924 82.7539 35.029L74.2578 49.2701L71.6699 45.5759C71.2207 44.9397 70.5469 44.5714 69.8438 44.5714C69.1406 44.5714 68.457 44.9397 68.0176 45.5759L61.7676 54.5045C61.2012 55.308 61.0938 56.4129 61.4844 57.3393C61.875 58.2656 62.6953 58.8571 63.5938 58.8571H72.9688H76.0938H96.4062C97.2754 58.8571 98.0762 58.3103 98.4766 57.4286C98.877 56.5469 98.8281 55.4866 98.3398 54.6719L86.6211 35.029ZM65.9375 33.8571C67.1807 33.8571 68.373 33.2927 69.2521 32.2881C70.1311 31.2834 70.625 29.9208 70.625 28.5C70.625 27.0792 70.1311 25.7166 69.2521 24.7119C68.373 23.7073 67.1807 23.1429 65.9375 23.1429C64.6943 23.1429 63.502 23.7073 62.6229 24.7119C61.7439 25.7166 61.25 27.0792 61.25 28.5C61.25 29.9208 61.7439 31.2834 62.6229 32.2881C63.502 33.2927 64.6943 33.8571 65.9375 33.8571Z" fill="black"/>
<path d="M11.6351 77.2727V86H10.0542V77.2727H11.6351ZM13.2789 86V79.4545H14.7534V80.5668H14.8301C14.9664 80.1918 15.1923 79.8991 15.5076 79.6889C15.823 79.4759 16.1994 79.3693 16.6369 79.3693C17.0801 79.3693 17.4537 79.4773 17.7576 79.6932C18.0645 79.9062 18.2804 80.1974 18.4054 80.5668H18.4735C18.6184 80.2031 18.8627 79.9134 19.2065 79.6974C19.5531 79.4787 19.9636 79.3693 20.438 79.3693C21.0403 79.3693 21.5318 79.5597 21.9125 79.9403C22.2931 80.321 22.4835 80.8764 22.4835 81.6065V86H20.9366V81.8452C20.9366 81.4389 20.8287 81.142 20.6127 80.9545C20.3968 80.7642 20.1326 80.669 19.8201 80.669C19.448 80.669 19.1568 80.7855 18.9466 81.0185C18.7392 81.2486 18.6355 81.5483 18.6355 81.9176V86H17.1227V81.7812C17.1227 81.4432 17.0204 81.1733 16.8159 80.9716C16.6142 80.7699 16.35 80.669 16.0233 80.669C15.8017 80.669 15.6 80.7259 15.4181 80.8395C15.2363 80.9503 15.0914 81.108 14.9835 81.3125C14.8755 81.5142 14.8216 81.75 14.8216 82.0199V86H13.2789ZM25.932 86.1321C25.5172 86.1321 25.1436 86.0582 24.8113 85.9105C24.4817 85.7599 24.2203 85.5384 24.0272 85.2457C23.8368 84.9531 23.7417 84.5923 23.7417 84.1634C23.7417 83.794 23.8098 83.4886 23.9462 83.2472C24.0826 83.0057 24.2686 82.8125 24.5044 82.6676C24.7402 82.5227 25.0059 82.4134 25.3013 82.3395C25.5996 82.2628 25.9078 82.2074 26.226 82.1733C26.6096 82.1335 26.9206 82.098 27.1593 82.0668C27.3979 82.0327 27.5712 81.9815 27.6792 81.9134C27.79 81.8423 27.8453 81.733 27.8453 81.5852V81.5597C27.8453 81.2386 27.7502 80.9901 27.5598 80.8139C27.3695 80.6378 27.0953 80.5497 26.7374 80.5497C26.3596 80.5497 26.0598 80.6321 25.8382 80.7969C25.6195 80.9616 25.4718 81.1562 25.3951 81.3807L23.9547 81.1761C24.0684 80.7784 24.2559 80.446 24.5172 80.179C24.7786 79.9091 25.0982 79.7074 25.476 79.5739C25.8539 79.4375 26.2715 79.3693 26.7289 79.3693C27.0442 79.3693 27.3581 79.4062 27.6706 79.4801C27.9831 79.554 28.2686 79.6761 28.5272 79.8466C28.7857 80.0142 28.9931 80.2429 29.1493 80.5327C29.3084 80.8224 29.388 81.1847 29.388 81.6193V86H27.905V85.1009H27.8539C27.7601 85.2827 27.628 85.4531 27.4576 85.6122C27.29 85.7685 27.0783 85.8949 26.8226 85.9915C26.5698 86.0852 26.2729 86.1321 25.932 86.1321ZM26.3326 84.9986C26.6422 84.9986 26.9107 84.9375 27.138 84.8153C27.3652 84.6903 27.54 84.5256 27.6621 84.321C27.7871 84.1165 27.8496 83.8935 27.8496 83.652V82.8807C27.8013 82.9205 27.7189 82.9574 27.6025 82.9915C27.4888 83.0256 27.361 83.0554 27.2189 83.081C27.0769 83.1065 26.9363 83.1293 26.7971 83.1491C26.6578 83.169 26.5371 83.1861 26.4348 83.2003C26.2047 83.2315 25.9988 83.2827 25.8169 83.3537C25.6351 83.4247 25.4917 83.5241 25.3865 83.652C25.2814 83.777 25.2289 83.9389 25.2289 84.1378C25.2289 84.4219 25.3326 84.6364 25.54 84.7812C25.7473 84.9261 26.0115 84.9986 26.3326 84.9986ZM33.7857 88.5909C33.2317 88.5909 32.7559 88.5156 32.3581 88.3651C31.9604 88.2173 31.6408 88.0185 31.3993 87.7685C31.1578 87.5185 30.9902 87.2415 30.8965 86.9375L32.2857 86.6009C32.3482 86.7287 32.4391 86.8551 32.5584 86.9801C32.6777 87.108 32.8382 87.2131 33.04 87.2955C33.2445 87.3807 33.5016 87.4233 33.8113 87.4233C34.2488 87.4233 34.611 87.3168 34.8979 87.1037C35.1848 86.8935 35.3283 86.5469 35.3283 86.0639V84.8239H35.2516C35.1721 84.983 35.0556 85.1463 34.9022 85.3139C34.7516 85.4815 34.5513 85.6222 34.3013 85.7358C34.0542 85.8494 33.7431 85.9062 33.3681 85.9062C32.8652 85.9062 32.4093 85.7884 32.0002 85.5526C31.5939 85.3139 31.2701 84.9588 31.0286 84.4872C30.79 84.0128 30.6706 83.419 30.6706 82.706C30.6706 81.9872 30.79 81.3807 31.0286 80.8864C31.2701 80.3892 31.5953 80.0128 32.0044 79.7571C32.4135 79.4986 32.8695 79.3693 33.3723 79.3693C33.7559 79.3693 34.0712 79.4347 34.3184 79.5653C34.5684 79.6932 34.7672 79.848 34.915 80.0298C35.0627 80.2088 35.1749 80.3778 35.2516 80.5369H35.3368V79.4545H36.8581V86.1065C36.8581 86.6662 36.7246 87.1293 36.4576 87.4957C36.1905 87.8622 35.8255 88.1364 35.3624 88.3182C34.8993 88.5 34.3738 88.5909 33.7857 88.5909ZM33.7985 84.696C34.1252 84.696 34.4036 84.6165 34.6337 84.4574C34.8638 84.2983 35.0385 84.0696 35.1578 83.7713C35.2772 83.473 35.3368 83.1151 35.3368 82.6974C35.3368 82.2855 35.2772 81.9247 35.1578 81.6151C35.0414 81.3054 34.8681 81.0653 34.638 80.8949C34.4107 80.7216 34.1309 80.6349 33.7985 80.6349C33.4547 80.6349 33.1678 80.7244 32.9377 80.9034C32.7076 81.0824 32.5343 81.3281 32.4178 81.6406C32.3013 81.9503 32.2431 82.3026 32.2431 82.6974C32.2431 83.098 32.3013 83.4489 32.4178 83.75C32.5371 84.0483 32.7118 84.2812 32.9419 84.4489C33.1749 84.6136 33.4604 84.696 33.7985 84.696ZM41.3368 86.1278C40.6806 86.1278 40.1138 85.9915 39.6365 85.7188C39.1621 85.4432 38.7971 85.054 38.5414 84.5511C38.2857 84.0455 38.1578 83.4503 38.1578 82.7656C38.1578 82.0923 38.2857 81.5014 38.5414 80.9929C38.7999 80.4815 39.1607 80.0838 39.6238 79.7997C40.0868 79.5128 40.6309 79.3693 41.2559 79.3693C41.6593 79.3693 42.04 79.4347 42.3979 79.5653C42.7587 79.6932 43.0769 79.892 43.3525 80.1619C43.6309 80.4318 43.8496 80.7756 44.0087 81.1932C44.1678 81.608 44.2473 82.1023 44.2473 82.6761V83.1491H38.8823V82.1094H42.7686C42.7658 81.8139 42.7019 81.5511 42.5769 81.321C42.4519 81.0881 42.2772 80.9048 42.0527 80.7713C41.8311 80.6378 41.5726 80.571 41.2772 80.571C40.9618 80.571 40.6848 80.6477 40.4462 80.8011C40.2076 80.9517 40.0215 81.1506 39.888 81.3977C39.7573 81.642 39.6905 81.9105 39.6877 82.2031V83.1108C39.6877 83.4915 39.7573 83.8182 39.8965 84.0909C40.0357 84.3608 40.2303 84.5682 40.4803 84.7131C40.7303 84.8551 41.0229 84.9261 41.3581 84.9261C41.5826 84.9261 41.7857 84.8949 41.9675 84.8324C42.1493 84.767 42.307 84.6719 42.4405 84.5469C42.574 84.4219 42.6749 84.267 42.7431 84.0824L44.1834 84.2443C44.0925 84.625 43.9192 84.9574 43.6635 85.2415C43.4107 85.5227 43.0868 85.7415 42.6919 85.8977C42.2971 86.0511 41.8453 86.1278 41.3368 86.1278ZM50.4125 86.1321C49.9977 86.1321 49.6241 86.0582 49.2917 85.9105C48.9622 85.7599 48.7008 85.5384 48.5076 85.2457C48.3173 84.9531 48.2221 84.5923 48.2221 84.1634C48.2221 83.794 48.2903 83.4886 48.4267 83.2472C48.563 83.0057 48.7491 82.8125 48.9849 82.6676C49.2207 82.5227 49.4863 82.4134 49.7818 82.3395C50.0801 82.2628 50.3883 82.2074 50.7065 82.1733C51.09 82.1335 51.4011 82.098 51.6397 82.0668C51.8784 82.0327 52.0517 81.9815 52.1596 81.9134C52.2704 81.8423 52.3258 81.733 52.3258 81.5852V81.5597C52.3258 81.2386 52.2306 80.9901 52.0403 80.8139C51.85 80.6378 51.5758 80.5497 51.2179 80.5497C50.84 80.5497 50.5403 80.6321 50.3187 80.7969C50.1 80.9616 49.9522 81.1562 49.8755 81.3807L48.4352 81.1761C48.5488 80.7784 48.7363 80.446 48.9977 80.179C49.2591 79.9091 49.5787 79.7074 49.9565 79.5739C50.3343 79.4375 50.752 79.3693 51.2093 79.3693C51.5247 79.3693 51.8386 79.4062 52.1511 79.4801C52.4636 79.554 52.7491 79.6761 53.0076 79.8466C53.2662 80.0142 53.4735 80.2429 53.6298 80.5327C53.7889 80.8224 53.8684 81.1847 53.8684 81.6193V86H52.3855V85.1009H52.3343C52.2406 85.2827 52.1085 85.4531 51.938 85.6122C51.7704 85.7685 51.5588 85.8949 51.3031 85.9915C51.0502 86.0852 50.7534 86.1321 50.4125 86.1321ZM50.813 84.9986C51.1227 84.9986 51.3912 84.9375 51.6184 84.8153C51.8457 84.6903 52.0204 84.5256 52.1426 84.321C52.2676 84.1165 52.3301 83.8935 52.3301 83.652V82.8807C52.2818 82.9205 52.1994 82.9574 52.0829 82.9915C51.9693 83.0256 51.8414 83.0554 51.6994 83.081C51.5574 83.1065 51.4167 83.1293 51.2775 83.1491C51.1383 83.169 51.0176 83.1861 50.9153 83.2003C50.6852 83.2315 50.4792 83.2827 50.2974 83.3537C50.1156 83.4247 49.9721 83.5241 49.867 83.652C49.7619 83.777 49.7093 83.9389 49.7093 84.1378C49.7093 84.4219 49.813 84.6364 50.0204 84.7812C50.2278 84.9261 50.492 84.9986 50.813 84.9986ZM57.8485 86.1151C57.3343 86.1151 56.8741 85.983 56.4679 85.7188C56.0616 85.4545 55.7406 85.071 55.5048 84.5682C55.269 84.0653 55.1511 83.4545 55.1511 82.7358C55.1511 82.0085 55.2704 81.3949 55.5091 80.8949C55.7505 80.392 56.0758 80.0128 56.4849 79.7571C56.894 79.4986 57.35 79.3693 57.8528 79.3693C58.2363 79.3693 58.5517 79.4347 58.7988 79.5653C59.046 79.6932 59.242 79.848 59.3869 80.0298C59.5318 80.2088 59.644 80.3778 59.7235 80.5369H59.7875V77.2727H61.3343V86H59.8173V84.9688H59.7235C59.644 85.1278 59.5289 85.2969 59.3784 85.4759C59.2278 85.652 59.0289 85.8026 58.7818 85.9276C58.5346 86.0526 58.2235 86.1151 57.8485 86.1151ZM58.2789 84.8494C58.6056 84.8494 58.8841 84.7614 59.1142 84.5852C59.3443 84.4062 59.519 84.1577 59.6383 83.8395C59.7576 83.5213 59.8173 83.1506 59.8173 82.7273C59.8173 82.304 59.7576 81.9361 59.6383 81.6236C59.5218 81.3111 59.3485 81.0682 59.1184 80.8949C58.8912 80.7216 58.6113 80.6349 58.2789 80.6349C57.9352 80.6349 57.6483 80.7244 57.4181 80.9034C57.188 81.0824 57.0147 81.3295 56.8983 81.6449C56.7818 81.9602 56.7235 82.321 56.7235 82.7273C56.7235 83.1364 56.7818 83.5014 56.8983 83.8224C57.0176 84.1406 57.1923 84.392 57.4224 84.5767C57.6554 84.7585 57.9409 84.8494 58.2789 84.8494ZM65.4071 86.1151C64.8929 86.1151 64.4327 85.983 64.0265 85.7188C63.6202 85.4545 63.2992 85.071 63.0634 84.5682C62.8276 84.0653 62.7097 83.4545 62.7097 82.7358C62.7097 82.0085 62.829 81.3949 63.0676 80.8949C63.3091 80.392 63.6344 80.0128 64.0435 79.7571C64.4526 79.4986 64.9086 79.3693 65.4114 79.3693C65.7949 79.3693 66.1103 79.4347 66.3574 79.5653C66.6046 79.6932 66.8006 79.848 66.9455 80.0298C67.0904 80.2088 67.2026 80.3778 67.2821 80.5369H67.3461V77.2727H68.8929V86H67.3759V84.9688H67.2821C67.2026 85.1278 67.0875 85.2969 66.937 85.4759C66.7864 85.652 66.5875 85.8026 66.3404 85.9276C66.0932 86.0526 65.7821 86.1151 65.4071 86.1151ZM65.8375 84.8494C66.1642 84.8494 66.4426 84.7614 66.6728 84.5852C66.9029 84.4062 67.0776 84.1577 67.1969 83.8395C67.3162 83.5213 67.3759 83.1506 67.3759 82.7273C67.3759 82.304 67.3162 81.9361 67.1969 81.6236C67.0804 81.3111 66.9071 81.0682 66.677 80.8949C66.4498 80.7216 66.1699 80.6349 65.8375 80.6349C65.4938 80.6349 65.2069 80.7244 64.9767 80.9034C64.7466 81.0824 64.5733 81.3295 64.4569 81.6449C64.3404 81.9602 64.2821 82.321 64.2821 82.7273C64.2821 83.1364 64.3404 83.5014 64.4569 83.8224C64.5762 84.1406 64.7509 84.392 64.981 84.5767C65.214 84.7585 65.4995 84.8494 65.8375 84.8494ZM73.4345 86.1278C72.7782 86.1278 72.2115 85.9915 71.7342 85.7188C71.2598 85.4432 70.8947 85.054 70.639 84.5511C70.3833 84.0455 70.2555 83.4503 70.2555 82.7656C70.2555 82.0923 70.3833 81.5014 70.639 80.9929C70.8975 80.4815 71.2583 80.0838 71.7214 79.7997C72.1845 79.5128 72.7285 79.3693 73.3535 79.3693C73.7569 79.3693 74.1376 79.4347 74.4956 79.5653C74.8564 79.6932 75.1745 79.892 75.4501 80.1619C75.7285 80.4318 75.9473 80.7756 76.1064 81.1932C76.2654 81.608 76.345 82.1023 76.345 82.6761V83.1491H70.9799V82.1094H74.8663C74.8635 81.8139 74.7995 81.5511 74.6745 81.321C74.5495 81.0881 74.3748 80.9048 74.1504 80.7713C73.9288 80.6378 73.6703 80.571 73.3748 80.571C73.0595 80.571 72.7825 80.6477 72.5439 80.8011C72.3052 80.9517 72.1191 81.1506 71.9856 81.3977C71.8549 81.642 71.7882 81.9105 71.7853 82.2031V83.1108C71.7853 83.4915 71.8549 83.8182 71.9941 84.0909C72.1333 84.3608 72.3279 84.5682 72.5779 84.7131C72.8279 84.8551 73.1206 84.9261 73.4558 84.9261C73.6802 84.9261 73.8833 84.8949 74.0652 84.8324C74.247 84.767 74.4047 84.6719 74.5382 84.5469C74.6717 84.4219 74.7725 84.267 74.8407 84.0824L76.2811 84.2443C76.1902 84.625 76.0169 84.9574 75.7612 85.2415C75.5083 85.5227 75.1845 85.7415 74.7896 85.8977C74.3947 86.0511 73.943 86.1278 73.4345 86.1278ZM80.079 86.1151C79.5648 86.1151 79.1046 85.983 78.6983 85.7188C78.2921 85.4545 77.9711 85.071 77.7353 84.5682C77.4995 84.0653 77.3816 83.4545 77.3816 82.7358C77.3816 82.0085 77.5009 81.3949 77.7395 80.8949C77.981 80.392 78.3063 80.0128 78.7154 79.7571C79.1245 79.4986 79.5804 79.3693 80.0833 79.3693C80.4668 79.3693 80.7821 79.4347 81.0293 79.5653C81.2765 79.6932 81.4725 79.848 81.6174 80.0298C81.7623 80.2088 81.8745 80.3778 81.954 80.5369H82.0179V77.2727H83.5648V86H82.0478V84.9688H81.954C81.8745 85.1278 81.7594 85.2969 81.6088 85.4759C81.4583 85.652 81.2594 85.8026 81.0123 85.9276C80.7651 86.0526 80.454 86.1151 80.079 86.1151ZM80.5094 84.8494C80.8361 84.8494 81.1145 84.7614 81.3446 84.5852C81.5748 84.4062 81.7495 84.1577 81.8688 83.8395C81.9881 83.5213 82.0478 83.1506 82.0478 82.7273C82.0478 82.304 81.9881 81.9361 81.8688 81.6236C81.7523 81.3111 81.579 81.0682 81.3489 80.8949C81.1216 80.7216 80.8418 80.6349 80.5094 80.6349C80.1657 80.6349 79.8787 80.7244 79.6486 80.9034C79.4185 81.0824 79.2452 81.3295 79.1287 81.6449C79.0123 81.9602 78.954 82.321 78.954 82.7273C78.954 83.1364 79.0123 83.5014 79.1287 83.8224C79.248 84.1406 79.4228 84.392 79.6529 84.5767C79.8858 84.7585 80.1713 84.8494 80.5094 84.8494ZM91.0403 86.1278C90.4011 86.1278 89.8471 85.9872 89.3784 85.706C88.9096 85.4247 88.546 85.0312 88.2875 84.5256C88.0318 84.0199 87.9039 83.429 87.9039 82.7528C87.9039 82.0767 88.0318 81.4844 88.2875 80.9759C88.546 80.4673 88.9096 80.0724 89.3784 79.7912C89.8471 79.5099 90.4011 79.3693 91.0403 79.3693C91.6795 79.3693 92.2335 79.5099 92.7022 79.7912C93.171 80.0724 93.5332 80.4673 93.7889 80.9759C94.0474 81.4844 94.1767 82.0767 94.1767 82.7528C94.1767 83.429 94.0474 84.0199 93.7889 84.5256C93.5332 85.0312 93.171 85.4247 92.7022 85.706C92.2335 85.9872 91.6795 86.1278 91.0403 86.1278ZM91.0488 84.892C91.3954 84.892 91.6852 84.7969 91.9181 84.6065C92.1511 84.4134 92.3244 84.1548 92.438 83.831C92.5545 83.5071 92.6127 83.1463 92.6127 82.7486C92.6127 82.348 92.5545 81.9858 92.438 81.6619C92.3244 81.3352 92.1511 81.0753 91.9181 80.8821C91.6852 80.6889 91.3954 80.5923 91.0488 80.5923C90.6937 80.5923 90.3983 80.6889 90.1625 80.8821C89.9295 81.0753 89.7548 81.3352 89.6383 81.6619C89.5247 81.9858 89.4679 82.348 89.4679 82.7486C89.4679 83.1463 89.5247 83.5071 89.6383 83.831C89.7548 84.1548 89.9295 84.4134 90.1625 84.6065C90.3983 84.7969 90.6937 84.892 91.0488 84.892ZM98.8013 79.4545V80.6477H94.932V79.4545H98.8013ZM95.8993 86V78.8366C95.8993 78.3963 95.9902 78.0298 96.1721 77.7372C96.3567 77.4446 96.6039 77.2259 96.9135 77.081C97.2232 76.9361 97.5669 76.8636 97.9448 76.8636C98.2118 76.8636 98.449 76.8849 98.6564 76.9276C98.8638 76.9702 99.0172 77.0085 99.1167 77.0426L98.8098 78.2358C98.7445 78.2159 98.6621 78.196 98.5627 78.1761C98.4632 78.1534 98.3525 78.142 98.2303 78.142C97.9434 78.142 97.7402 78.2116 97.6209 78.3509C97.5044 78.4872 97.4462 78.6832 97.4462 78.9389V86H95.8993ZM103.325 79.4545V80.6477H99.4554V79.4545H103.325ZM100.423 86V78.8366C100.423 78.3963 100.514 78.0298 100.695 77.7372C100.88 77.4446 101.127 77.2259 101.437 77.081C101.747 76.9361 102.09 76.8636 102.468 76.8636C102.735 76.8636 102.972 76.8849 103.18 76.9276C103.387 76.9702 103.541 77.0085 103.64 77.0426L103.333 78.2358C103.268 78.2159 103.186 78.196 103.086 78.1761C102.987 78.1534 102.876 78.142 102.754 78.142C102.467 78.142 102.264 78.2116 102.144 78.3509C102.028 78.4872 101.97 78.6832 101.97 78.9389V86H100.423ZM106.075 77.2727V86H104.533V77.2727H106.075ZM107.662 86V79.4545H109.204V86H107.662ZM108.437 78.5256C108.193 78.5256 107.983 78.4446 107.807 78.2827C107.631 78.1179 107.542 77.9205 107.542 77.6903C107.542 77.4574 107.631 77.2599 107.807 77.098C107.983 76.9332 108.193 76.8509 108.437 76.8509C108.684 76.8509 108.895 76.9332 109.068 77.098C109.244 77.2599 109.332 77.4574 109.332 77.6903C109.332 77.9205 109.244 78.1179 109.068 78.2827C108.895 78.4446 108.684 78.5256 108.437 78.5256ZM112.333 82.1648V86H110.791V79.4545H112.265V80.5668H112.342C112.492 80.2003 112.732 79.9091 113.062 79.6932C113.394 79.4773 113.805 79.3693 114.294 79.3693C114.745 79.3693 115.139 79.4659 115.474 79.6591C115.812 79.8523 116.073 80.1321 116.258 80.4986C116.445 80.8651 116.538 81.3097 116.535 81.8324V86H114.992V82.071C114.992 81.6335 114.879 81.2912 114.651 81.044C114.427 80.7969 114.116 80.6733 113.718 80.6733C113.448 80.6733 113.208 80.733 112.998 80.8523C112.791 80.9687 112.627 81.1378 112.508 81.3594C112.392 81.581 112.333 81.8494 112.333 82.1648ZM121.001 86.1278C120.345 86.1278 119.778 85.9915 119.301 85.7188C118.826 85.4432 118.461 85.054 118.205 84.5511C117.95 84.0455 117.822 83.4503 117.822 82.7656C117.822 82.0923 117.95 81.5014 118.205 80.9929C118.464 80.4815 118.825 80.0838 119.288 79.7997C119.751 79.5128 120.295 79.3693 120.92 79.3693C121.323 79.3693 121.704 79.4347 122.062 79.5653C122.423 79.6932 122.741 79.892 123.017 80.1619C123.295 80.4318 123.514 80.7756 123.673 81.1932C123.832 81.608 123.911 82.1023 123.911 82.6761V83.1491H118.546V82.1094H122.433C122.43 81.8139 122.366 81.5511 122.241 81.321C122.116 81.0881 121.941 80.9048 121.717 80.7713C121.495 80.6378 121.237 80.571 120.941 80.571C120.626 80.571 120.349 80.6477 120.11 80.8011C119.872 80.9517 119.686 81.1506 119.552 81.3977C119.421 81.642 119.355 81.9105 119.352 82.2031V83.1108C119.352 83.4915 119.421 83.8182 119.561 84.0909C119.7 84.3608 119.894 84.5682 120.144 84.7131C120.394 84.8551 120.687 84.9261 121.022 84.9261C121.247 84.9261 121.45 84.8949 121.632 84.8324C121.813 84.767 121.971 84.6719 122.105 84.5469C122.238 84.4219 122.339 84.267 122.407 84.0824L123.847 84.2443C123.757 84.625 123.583 84.9574 123.328 85.2415C123.075 85.5227 122.751 85.7415 122.356 85.8977C121.961 86.0511 121.509 86.1278 121.001 86.1278ZM129.544 86L127.694 79.4545H129.267L130.417 84.0568H130.477L131.653 79.4545H133.209L134.385 84.0312H134.449L135.582 79.4545H137.159L135.305 86H133.699L132.471 81.5767H132.382L131.155 86H129.544ZM138.236 86V79.4545H139.779V86H138.236ZM139.012 78.5256C138.767 78.5256 138.557 78.4446 138.381 78.2827C138.205 78.1179 138.117 77.9205 138.117 77.6903C138.117 77.4574 138.205 77.2599 138.381 77.098C138.557 76.9332 138.767 76.8509 139.012 76.8509C139.259 76.8509 139.469 76.9332 139.642 77.098C139.818 77.2599 139.906 77.4574 139.906 77.6903C139.906 77.9205 139.818 78.1179 139.642 78.2827C139.469 78.4446 139.259 78.5256 139.012 78.5256ZM142.907 77.2727V86H141.365V77.2727H142.907ZM146.036 77.2727V86H144.494V77.2727H146.036ZM21.6019 101.132C21.1871 101.132 20.8136 101.058 20.4812 100.911C20.1516 100.76 19.8903 100.538 19.6971 100.246C19.5067 99.9531 19.4116 99.5923 19.4116 99.1634C19.4116 98.794 19.4798 98.4886 19.6161 98.2472C19.7525 98.0057 19.9386 97.8125 20.1744 97.6676C20.4102 97.5227 20.6758 97.4134 20.9712 97.3395C21.2695 97.2628 21.5778 97.2074 21.896 97.1733C22.2795 97.1335 22.5906 97.098 22.8292 97.0668C23.0678 97.0327 23.2411 96.9815 23.3491 96.9134C23.4599 96.8423 23.5153 96.733 23.5153 96.5852V96.5597C23.5153 96.2386 23.4201 95.9901 23.2298 95.8139C23.0394 95.6378 22.7653 95.5497 22.4073 95.5497C22.0295 95.5497 21.7298 95.6321 21.5082 95.7969C21.2894 95.9616 21.1417 96.1562 21.065 96.3807L19.6246 96.1761C19.7383 95.7784 19.9258 95.446 20.1871 95.179C20.4485 94.9091 20.7681 94.7074 21.146 94.5739C21.5238 94.4375 21.9414 94.3693 22.3988 94.3693C22.7141 94.3693 23.0281 94.4062 23.3406 94.4801C23.6531 94.554 23.9386 94.6761 24.1971 94.8466C24.4556 95.0142 24.663 95.2429 24.8192 95.5327C24.9783 95.8224 25.0579 96.1847 25.0579 96.6193V101H23.5749V100.101H23.5238C23.43 100.283 23.2979 100.453 23.1275 100.612C22.9599 100.768 22.7482 100.895 22.4925 100.991C22.2397 101.085 21.9428 101.132 21.6019 101.132ZM22.0025 99.9986C22.3121 99.9986 22.5806 99.9375 22.8079 99.8153C23.0352 99.6903 23.2099 99.5256 23.332 99.321C23.457 99.1165 23.5195 98.8935 23.5195 98.652V97.8807C23.4712 97.9205 23.3888 97.9574 23.2724 97.9915C23.1587 98.0256 23.0309 98.0554 22.8888 98.081C22.7468 98.1065 22.6062 98.1293 22.467 98.1491C22.3278 98.169 22.207 98.1861 22.1048 98.2003C21.8746 98.2315 21.6687 98.2827 21.4869 98.3537C21.305 98.4247 21.1616 98.5241 21.0565 98.652C20.9513 98.777 20.8988 98.9389 20.8988 99.1378C20.8988 99.4219 21.0025 99.6364 21.2099 99.7812C21.4173 99.9261 21.6815 99.9986 22.0025 99.9986ZM26.609 103.455V94.4545H28.1261V95.5369H28.2156C28.2951 95.3778 28.4073 95.2088 28.5522 95.0298C28.6971 94.848 28.8931 94.6932 29.1403 94.5653C29.3874 94.4347 29.7028 94.3693 30.0863 94.3693C30.592 94.3693 31.0479 94.4986 31.4542 94.7571C31.8633 95.0128 32.1871 95.392 32.4258 95.8949C32.6673 96.3949 32.788 97.0085 32.788 97.7358C32.788 98.4545 32.6701 99.0653 32.4343 99.5682C32.1985 100.071 31.8775 100.455 31.4712 100.719C31.065 100.983 30.6048 101.115 30.0906 101.115C29.7156 101.115 29.4045 101.053 29.1573 100.928C28.9102 100.803 28.7113 100.652 28.5607 100.476C28.413 100.297 28.2979 100.128 28.2156 99.9688H28.1516V103.455H26.609ZM28.1218 97.7273C28.1218 98.1506 28.1815 98.5213 28.3008 98.8395C28.4229 99.1577 28.5977 99.4062 28.8249 99.5852C29.055 99.7614 29.3335 99.8494 29.6602 99.8494C30.0011 99.8494 30.2866 99.7585 30.5167 99.5767C30.7468 99.392 30.9201 99.1406 31.0366 98.8224C31.1559 98.5014 31.2156 98.1364 31.2156 97.7273C31.2156 97.321 31.1573 96.9602 31.0408 96.6449C30.9244 96.3295 30.7511 96.0824 30.521 95.9034C30.2908 95.7244 30.0039 95.6349 29.6602 95.6349C29.3306 95.6349 29.0508 95.7216 28.8207 95.8949C28.5906 96.0682 28.4158 96.3111 28.2965 96.6236C28.18 96.9361 28.1218 97.304 28.1218 97.7273ZM34.109 103.455V94.4545H35.6261V95.5369H35.7156C35.7951 95.3778 35.9073 95.2088 36.0522 95.0298C36.1971 94.848 36.3931 94.6932 36.6403 94.5653C36.8874 94.4347 37.2028 94.3693 37.5863 94.3693C38.092 94.3693 38.5479 94.4986 38.9542 94.7571C39.3633 95.0128 39.6871 95.392 39.9258 95.8949C40.1673 96.3949 40.288 97.0085 40.288 97.7358C40.288 98.4545 40.1701 99.0653 39.9343 99.5682C39.6985 100.071 39.3775 100.455 38.9712 100.719C38.565 100.983 38.1048 101.115 37.5906 101.115C37.2156 101.115 36.9045 101.053 36.6573 100.928C36.4102 100.803 36.2113 100.652 36.0607 100.476C35.913 100.297 35.7979 100.128 35.7156 99.9688H35.6516V103.455H34.109ZM35.6218 97.7273C35.6218 98.1506 35.6815 98.5213 35.8008 98.8395C35.9229 99.1577 36.0977 99.4062 36.3249 99.5852C36.555 99.7614 36.8335 99.8494 37.1602 99.8494C37.5011 99.8494 37.7866 99.7585 38.0167 99.5767C38.2468 99.392 38.4201 99.1406 38.5366 98.8224C38.6559 98.5014 38.7156 98.1364 38.7156 97.7273C38.7156 97.321 38.6573 96.9602 38.5408 96.6449C38.4244 96.3295 38.2511 96.0824 38.021 95.9034C37.7908 95.7244 37.5039 95.6349 37.1602 95.6349C36.8306 95.6349 36.5508 95.7216 36.3207 95.8949C36.0906 96.0682 35.9158 96.3111 35.7965 96.6236C35.68 96.9361 35.6218 97.304 35.6218 97.7273ZM44.5067 101.128C43.8505 101.128 43.2837 100.991 42.8065 100.719C42.332 100.443 41.967 100.054 41.7113 99.5511C41.4556 99.0455 41.3278 98.4503 41.3278 97.7656C41.3278 97.0923 41.4556 96.5014 41.7113 95.9929C41.9698 95.4815 42.3306 95.0838 42.7937 94.7997C43.2567 94.5128 43.8008 94.3693 44.4258 94.3693C44.8292 94.3693 45.2099 94.4347 45.5678 94.5653C45.9286 94.6932 46.2468 94.892 46.5224 95.1619C46.8008 95.4318 47.0195 95.7756 47.1786 96.1932C47.3377 96.608 47.4173 97.1023 47.4173 97.6761V98.1491H42.0522V97.1094H45.9386C45.9357 96.8139 45.8718 96.5511 45.7468 96.321C45.6218 96.0881 45.4471 95.9048 45.2227 95.7713C45.0011 95.6378 44.7425 95.571 44.4471 95.571C44.1317 95.571 43.8548 95.6477 43.6161 95.8011C43.3775 95.9517 43.1914 96.1506 43.0579 96.3977C42.9272 96.642 42.8604 96.9105 42.8576 97.2031V98.1108C42.8576 98.4915 42.9272 98.8182 43.0664 99.0909C43.2056 99.3608 43.4002 99.5682 43.6502 99.7131C43.9002 99.8551 44.1928 99.9261 44.5281 99.9261C44.7525 99.9261 44.9556 99.8949 45.1374 99.8324C45.3192 99.767 45.4769 99.6719 45.6104 99.5469C45.744 99.4219 45.8448 99.267 45.913 99.0824L47.3533 99.2443C47.2624 99.625 47.0891 99.9574 46.8335 100.241C46.5806 100.523 46.2567 100.741 45.8619 100.898C45.467 101.051 45.0153 101.128 44.5067 101.128ZM50.6058 101.132C50.1911 101.132 49.8175 101.058 49.4851 100.911C49.1555 100.76 48.8942 100.538 48.701 100.246C48.5107 99.9531 48.4155 99.5923 48.4155 99.1634C48.4155 98.794 48.4837 98.4886 48.62 98.2472C48.7564 98.0057 48.9425 97.8125 49.1783 97.6676C49.4141 97.5227 49.6797 97.4134 49.9751 97.3395C50.2734 97.2628 50.5817 97.2074 50.8999 97.1733C51.2834 97.1335 51.5945 97.098 51.8331 97.0668C52.0717 97.0327 52.245 96.9815 52.353 96.9134C52.4638 96.8423 52.5192 96.733 52.5192 96.5852V96.5597C52.5192 96.2386 52.424 95.9901 52.2337 95.8139C52.0433 95.6378 51.7692 95.5497 51.4112 95.5497C51.0334 95.5497 50.7337 95.6321 50.5121 95.7969C50.2933 95.9616 50.1456 96.1562 50.0689 96.3807L48.6286 96.1761C48.7422 95.7784 48.9297 95.446 49.1911 95.179C49.4524 94.9091 49.772 94.7074 50.1499 94.5739C50.5277 94.4375 50.9453 94.3693 51.4027 94.3693C51.718 94.3693 52.032 94.4062 52.3445 94.4801C52.657 94.554 52.9425 94.6761 53.201 94.8466C53.4595 95.0142 53.6669 95.2429 53.8232 95.5327C53.9822 95.8224 54.0618 96.1847 54.0618 96.6193V101H52.5788V100.101H52.5277C52.4339 100.283 52.3018 100.453 52.1314 100.612C51.9638 100.768 51.7521 100.895 51.4964 100.991C51.2436 101.085 50.9467 101.132 50.6058 101.132ZM51.0064 99.9986C51.3161 99.9986 51.5845 99.9375 51.8118 99.8153C52.0391 99.6903 52.2138 99.5256 52.3359 99.321C52.4609 99.1165 52.5234 98.8935 52.5234 98.652V97.8807C52.4751 97.9205 52.3928 97.9574 52.2763 97.9915C52.1626 98.0256 52.0348 98.0554 51.8928 98.081C51.7507 98.1065 51.6101 98.1293 51.4709 98.1491C51.3317 98.169 51.2109 98.1861 51.1087 98.2003C50.8786 98.2315 50.6726 98.2827 50.4908 98.3537C50.3089 98.4247 50.1655 98.5241 50.0604 98.652C49.9553 98.777 49.9027 98.9389 49.9027 99.1378C49.9027 99.4219 50.0064 99.6364 50.2138 99.7812C50.4212 99.9261 50.6854 99.9986 51.0064 99.9986ZM55.6129 101V94.4545H57.1087V95.5455H57.1768C57.2962 95.1676 57.5007 94.8764 57.7905 94.6719C58.0831 94.4645 58.4169 94.3608 58.7919 94.3608C58.8771 94.3608 58.9723 94.3651 59.0774 94.3736C59.1854 94.3793 59.2749 94.3892 59.3459 94.4034V95.8224C59.2805 95.7997 59.1768 95.7798 59.0348 95.7628C58.8956 95.7429 58.7607 95.733 58.63 95.733C58.3487 95.733 58.0959 95.794 57.8714 95.9162C57.6499 96.0355 57.4751 96.2017 57.3473 96.4148C57.2195 96.6278 57.1555 96.8736 57.1555 97.152V101H55.6129ZM66.2024 101.128C65.5632 101.128 65.0092 100.987 64.5405 100.706C64.0717 100.425 63.7081 100.031 63.4496 99.5256C63.1939 99.0199 63.0661 98.429 63.0661 97.7528C63.0661 97.0767 63.1939 96.4844 63.4496 95.9759C63.7081 95.4673 64.0717 95.0724 64.5405 94.7912C65.0092 94.5099 65.5632 94.3693 66.2024 94.3693C66.8416 94.3693 67.3956 94.5099 67.8643 94.7912C68.3331 95.0724 68.6953 95.4673 68.951 95.9759C69.2095 96.4844 69.3388 97.0767 69.3388 97.7528C69.3388 98.429 69.2095 99.0199 68.951 99.5256C68.6953 100.031 68.3331 100.425 67.8643 100.706C67.3956 100.987 66.8416 101.128 66.2024 101.128ZM66.2109 99.892C66.5575 99.892 66.8473 99.7969 67.0803 99.6065C67.3132 99.4134 67.4865 99.1548 67.6001 98.831C67.7166 98.5071 67.7749 98.1463 67.7749 97.7486C67.7749 97.348 67.7166 96.9858 67.6001 96.6619C67.4865 96.3352 67.3132 96.0753 67.0803 95.8821C66.8473 95.6889 66.5575 95.5923 66.2109 95.5923C65.8558 95.5923 65.5604 95.6889 65.3246 95.8821C65.0916 96.0753 64.9169 96.3352 64.8004 96.6619C64.6868 96.9858 64.63 97.348 64.63 97.7486C64.63 98.1463 64.6868 98.5071 64.8004 98.831C64.9169 99.1548 65.0916 99.4134 65.3246 99.6065C65.5604 99.7969 65.8558 99.892 66.2109 99.892ZM72.1907 97.1648V101H70.6481V94.4545H72.1225V95.5668H72.1992C72.3498 95.2003 72.5898 94.9091 72.9194 94.6932C73.2518 94.4773 73.6623 94.3693 74.1509 94.3693C74.6026 94.3693 74.9961 94.4659 75.3313 94.6591C75.6694 94.8523 75.9308 95.1321 76.1154 95.4986C76.3029 95.8651 76.3952 96.3097 76.3924 96.8324V101H74.8498V97.071C74.8498 96.6335 74.7362 96.2912 74.5089 96.044C74.2844 95.7969 73.9734 95.6733 73.5756 95.6733C73.3058 95.6733 73.0657 95.733 72.8555 95.8523C72.6481 95.9687 72.4847 96.1378 72.3654 96.3594C72.2489 96.581 72.1907 96.8494 72.1907 97.1648ZM80.8157 101.128C80.1623 101.128 79.6012 100.984 79.1325 100.697C78.6665 100.411 78.3072 100.014 78.0543 99.5085C77.8043 99 77.6793 98.4148 77.6793 97.7528C77.6793 97.0881 77.8072 96.5014 78.0629 95.9929C78.3185 95.4815 78.6793 95.0838 79.1452 94.7997C79.614 94.5128 80.168 94.3693 80.8072 94.3693C81.3384 94.3693 81.8086 94.4673 82.2177 94.6634C82.6296 94.8565 82.9577 95.1307 83.2021 95.4858C83.4464 95.8381 83.5856 96.25 83.6197 96.7216H82.1452C82.0856 96.4062 81.9435 96.1435 81.7191 95.9332C81.4975 95.7202 81.2006 95.6136 80.8285 95.6136C80.5131 95.6136 80.2362 95.6989 79.9975 95.8693C79.7589 96.0369 79.5728 96.2784 79.4393 96.5938C79.3086 96.9091 79.2433 97.2869 79.2433 97.7273C79.2433 98.1733 79.3086 98.5568 79.4393 98.8778C79.57 99.196 79.7532 99.4418 79.989 99.6151C80.2276 99.7855 80.5075 99.8707 80.8285 99.8707C81.0558 99.8707 81.2589 99.8281 81.4379 99.7429C81.6197 99.6548 81.7717 99.5284 81.8938 99.3636C82.016 99.1989 82.0998 98.9986 82.1452 98.7628H83.6197C83.5827 99.2259 83.4464 99.6364 83.2106 99.9943C82.9748 100.349 82.6538 100.628 82.2475 100.83C81.8413 101.028 81.364 101.128 80.8157 101.128ZM87.7841 101.128C87.1278 101.128 86.5611 100.991 86.0838 100.719C85.6094 100.443 85.2443 100.054 84.9886 99.5511C84.733 99.0455 84.6051 98.4503 84.6051 97.7656C84.6051 97.0923 84.733 96.5014 84.9886 95.9929C85.2472 95.4815 85.608 95.0838 86.071 94.7997C86.5341 94.5128 87.0781 94.3693 87.7031 94.3693C88.1065 94.3693 88.4872 94.4347 88.8452 94.5653C89.206 94.6932 89.5241 94.892 89.7997 95.1619C90.0781 95.4318 90.2969 95.7756 90.456 96.1932C90.6151 96.608 90.6946 97.1023 90.6946 97.6761V98.1491H85.3295V97.1094H89.2159C89.2131 96.8139 89.1491 96.5511 89.0241 96.321C88.8991 96.0881 88.7244 95.9048 88.5 95.7713C88.2784 95.6378 88.0199 95.571 87.7244 95.571C87.4091 95.571 87.1321 95.6477 86.8935 95.8011C86.6548 95.9517 86.4688 96.1506 86.3352 96.3977C86.2045 96.642 86.1378 96.9105 86.1349 97.2031V98.1108C86.1349 98.4915 86.2045 98.8182 86.3438 99.0909C86.483 99.3608 86.6776 99.5682 86.9276 99.7131C87.1776 99.8551 87.4702 99.9261 87.8054 99.9261C88.0298 99.9261 88.233 99.8949 88.4148 99.8324C88.5966 99.767 88.7543 99.6719 88.8878 99.5469C89.0213 99.4219 89.1222 99.267 89.1903 99.0824L90.6307 99.2443C90.5398 99.625 90.3665 99.9574 90.1108 100.241C89.858 100.523 89.5341 100.741 89.1392 100.898C88.7443 101.051 88.2926 101.128 87.7841 101.128ZM100.15 96.1847L98.7433 96.3381C98.7035 96.196 98.6339 96.0625 98.5344 95.9375C98.4379 95.8125 98.3072 95.7116 98.1424 95.6349C97.9776 95.5582 97.7759 95.5199 97.5373 95.5199C97.2163 95.5199 96.9464 95.5895 96.7276 95.7287C96.5117 95.8679 96.4052 96.0483 96.408 96.2699C96.4052 96.4602 96.4748 96.6151 96.6168 96.7344C96.7617 96.8537 97.0004 96.9517 97.3327 97.0284L98.4492 97.267C99.0685 97.4006 99.5288 97.6122 99.8299 97.902C100.134 98.1918 100.287 98.571 100.29 99.0398C100.287 99.4517 100.167 99.8153 99.9279 100.131C99.6921 100.443 99.364 100.687 98.9435 100.864C98.5231 101.04 98.0401 101.128 97.4947 101.128C96.6935 101.128 96.0487 100.96 95.56 100.625C95.0714 100.287 94.7802 99.8168 94.6864 99.2145L96.1907 99.0696C96.2589 99.3651 96.4038 99.5881 96.6254 99.7386C96.8469 99.8892 97.1353 99.9645 97.4904 99.9645C97.8569 99.9645 98.1509 99.8892 98.3725 99.7386C98.5969 99.5881 98.7092 99.402 98.7092 99.1804C98.7092 98.9929 98.6367 98.8381 98.4918 98.7159C98.3498 98.5937 98.1282 98.5 97.8271 98.4347L96.7106 98.2003C96.0827 98.0696 95.6183 97.8494 95.3171 97.5398C95.016 97.2273 94.8668 96.8324 94.8697 96.3551C94.8668 95.9517 94.9762 95.6023 95.1978 95.3068C95.4222 95.0085 95.7333 94.7784 96.131 94.6165C96.5316 94.4517 96.9933 94.3693 97.516 94.3693C98.283 94.3693 98.8867 94.5327 99.3271 94.8594C99.7702 95.1861 100.044 95.6278 100.15 96.1847ZM102.521 103.455C102.311 103.455 102.116 103.438 101.937 103.403C101.761 103.372 101.62 103.335 101.515 103.293L101.873 102.091C102.098 102.156 102.298 102.188 102.474 102.185C102.65 102.182 102.805 102.126 102.939 102.018C103.075 101.913 103.19 101.737 103.284 101.49L103.416 101.136L101.042 94.4545H102.679L104.187 99.3977H104.255L105.768 94.4545H107.409L104.788 101.793C104.666 102.139 104.504 102.436 104.302 102.683C104.1 102.933 103.853 103.124 103.561 103.254C103.271 103.388 102.924 103.455 102.521 103.455ZM110.019 97.1648V101H108.476V94.4545H109.951V95.5668H110.027C110.178 95.2003 110.418 94.9091 110.748 94.6932C111.08 94.4773 111.49 94.3693 111.979 94.3693C112.431 94.3693 112.824 94.4659 113.159 94.6591C113.498 94.8523 113.759 95.1321 113.944 95.4986C114.131 95.8651 114.223 96.3097 114.221 96.8324V101H112.678V97.071C112.678 96.6335 112.564 96.2912 112.337 96.044C112.113 95.7969 111.801 95.6733 111.404 95.6733C111.134 95.6733 110.894 95.733 110.684 95.8523C110.476 95.9687 110.313 96.1378 110.194 96.3594C110.077 96.581 110.019 96.8494 110.019 97.1648ZM118.644 101.128C117.99 101.128 117.429 100.984 116.961 100.697C116.495 100.411 116.135 100.014 115.882 99.5085C115.632 99 115.507 98.4148 115.507 97.7528C115.507 97.0881 115.635 96.5014 115.891 95.9929C116.147 95.4815 116.507 95.0838 116.973 94.7997C117.442 94.5128 117.996 94.3693 118.635 94.3693C119.167 94.3693 119.637 94.4673 120.046 94.6634C120.458 94.8565 120.786 95.1307 121.03 95.4858C121.275 95.8381 121.414 96.25 121.448 96.7216H119.973C119.914 96.4062 119.772 96.1435 119.547 95.9332C119.326 95.7202 119.029 95.6136 118.657 95.6136C118.341 95.6136 118.064 95.6989 117.826 95.8693C117.587 96.0369 117.401 96.2784 117.267 96.5938C117.137 96.9091 117.071 97.2869 117.071 97.7273C117.071 98.1733 117.137 98.5568 117.267 98.8778C117.398 99.196 117.581 99.4418 117.817 99.6151C118.056 99.7855 118.336 99.8707 118.657 99.8707C118.884 99.8707 119.087 99.8281 119.266 99.7429C119.448 99.6548 119.6 99.5284 119.722 99.3636C119.844 99.1989 119.928 98.9986 119.973 98.7628H121.448C121.411 99.2259 121.275 99.6364 121.039 99.9943C120.803 100.349 120.482 100.628 120.076 100.83C119.669 101.028 119.192 101.128 118.644 101.128ZM125.612 101.128C124.956 101.128 124.389 100.991 123.912 100.719C123.438 100.443 123.072 100.054 122.817 99.5511C122.561 99.0455 122.433 98.4503 122.433 97.7656C122.433 97.0923 122.561 96.5014 122.817 95.9929C123.075 95.4815 123.436 95.0838 123.899 94.7997C124.362 94.5128 124.906 94.3693 125.531 94.3693C125.935 94.3693 126.315 94.4347 126.673 94.5653C127.034 94.6932 127.352 94.892 127.628 95.1619C127.906 95.4318 128.125 95.7756 128.284 96.1932C128.443 96.608 128.523 97.1023 128.523 97.6761V98.1491H123.158V97.1094H127.044C127.041 96.8139 126.977 96.5511 126.852 96.321C126.727 96.0881 126.553 95.9048 126.328 95.7713C126.107 95.6378 125.848 95.571 125.553 95.571C125.237 95.571 124.96 95.6477 124.722 95.8011C124.483 95.9517 124.297 96.1506 124.163 96.3977C124.033 96.642 123.966 96.9105 123.963 97.2031V98.1108C123.963 98.4915 124.033 98.8182 124.172 99.0909C124.311 99.3608 124.506 99.5682 124.756 99.7131C125.006 99.8551 125.298 99.9261 125.634 99.9261C125.858 99.9261 126.061 99.8949 126.243 99.8324C126.425 99.767 126.582 99.6719 126.716 99.5469C126.849 99.4219 126.95 99.267 127.018 99.0824L128.459 99.2443C128.368 99.625 128.195 99.9574 127.939 100.241C127.686 100.523 127.362 100.741 126.967 100.898C126.572 101.051 126.121 101.128 125.612 101.128ZM132.257 101.115C131.743 101.115 131.282 100.983 130.876 100.719C130.47 100.455 130.149 100.071 129.913 99.5682C129.677 99.0653 129.559 98.4545 129.559 97.7358C129.559 97.0085 129.679 96.3949 129.917 95.8949C130.159 95.392 130.484 95.0128 130.893 94.7571C131.302 94.4986 131.758 94.3693 132.261 94.3693C132.645 94.3693 132.96 94.4347 133.207 94.5653C133.454 94.6932 133.65 94.848 133.795 95.0298C133.94 95.2088 134.052 95.3778 134.132 95.5369H134.196V92.2727H135.743V101H134.225V99.9688H134.132C134.052 100.128 133.937 100.297 133.787 100.476C133.636 100.652 133.437 100.803 133.19 100.928C132.943 101.053 132.632 101.115 132.257 101.115ZM132.687 99.8494C133.014 99.8494 133.292 99.7614 133.522 99.5852C133.752 99.4062 133.927 99.1577 134.047 98.8395C134.166 98.5213 134.225 98.1506 134.225 97.7273C134.225 97.304 134.166 96.9361 134.047 96.6236C133.93 96.3111 133.757 96.0682 133.527 95.8949C133.299 95.7216 133.02 95.6349 132.687 95.6349C132.343 95.6349 132.056 95.7244 131.826 95.9034C131.596 96.0824 131.423 96.3295 131.306 96.6449C131.19 96.9602 131.132 97.321 131.132 97.7273C131.132 98.1364 131.19 98.5014 131.306 98.8224C131.426 99.1406 131.6 99.392 131.831 99.5767C132.064 99.7585 132.349 99.8494 132.687 99.8494ZM138.337 101.094C138.078 101.094 137.857 101.003 137.672 100.821C137.487 100.639 137.396 100.418 137.399 100.156C137.396 99.9006 137.487 99.6818 137.672 99.5C137.857 99.3182 138.078 99.2273 138.337 99.2273C138.587 99.2273 138.804 99.3182 138.989 99.5C139.176 99.6818 139.271 99.9006 139.274 100.156C139.271 100.33 139.226 100.487 139.138 100.629C139.053 100.771 138.939 100.885 138.797 100.97C138.658 101.053 138.504 101.094 138.337 101.094Z" fill="black"/>
</g>
<defs>
<filter id="filter0_d_83_8" x="0.0541992" y="10" width="155.982" height="107.454" filterUnits="userSpaceOnUse" color-interpolation-filters="sRGB">
<feFlood flood-opacity="0" result="BackgroundImageFix"/>
<feColorMatrix in="SourceAlpha" type="matrix" values="0 0 0 0 0 0 0 0 0 0 0 0 0 0 0 0 0 0 127 0" result="hardAlpha"/>
<feOffset dy="4"/>
<feGaussianBlur stdDeviation="5"/>
<feComposite in2="hardAlpha" operator="out"/>
<feColorMatrix type="matrix" values="0 0 0 0 0 0 0 0 0 0 0 0 0 0 0 0 0 0 0.25 0"/>
<feBlend mode="normal" in2="BackgroundImageFix" result="effect1_dropShadow_83_8"/>
<feBlend mode="normal" in="SourceGraphic" in2="effect1_dropShadow_83_8" result="shape"/>
</filter>
</defs>
</svg>
